<?xml version="1.0" encoding="UTF-8"?>
<svg version="1.1" xmlns="http://www.w3.org/2000/svg" width="320" height="422">
<path d="M0 0 C105.6 0 211.2 0 320 0 C320 139.26 320 278.52 320 422 C214.4 422 108.8 422 0 422 C0 282.74 0 143.48 0 0 Z " fill="#515355" transform="translate(0,0)"/>
<path d="M0 0 C105.6 0 211.2 0 320 0 C320 139.26 320 278.52 320 422 C214.4 422 108.8 422 0 422 C0 282.74 0 143.48 0 0 Z M82 61 C81.16162598 61.22478027 80.32325195 61.44956055 79.45947266 61.68115234 C70.34380746 64.14681902 61.62278494 67.12277586 53 71 C51.47167534 71.66740263 49.94299982 72.33400211 48.4140625 73 C46.71310736 73.74901451 45.01258859 74.49902071 43.3125 75.25 C42.16527466 75.75128418 42.16527466 75.75128418 40.99487305 76.26269531 C35.25137335 78.83210922 29.69971713 81.71020839 24.14916992 84.66699219 C23.36367516 85.08419525 22.57818039 85.50139832 21.76888275 85.9312439 C19.84535275 86.95309207 17.92259757 87.97639855 16 89 C15.90612389 110.00294452 15.83581042 131.00585392 15.79275131 152.00896645 C15.77221752 161.76337364 15.74427493 171.5176497 15.69824219 181.27197266 C15.65809068 189.78419892 15.63250068 198.29633011 15.62364602 206.80864847 C15.61847865 211.30648804 15.60653077 215.80405586 15.57707977 220.3018074 C15.46008608 238.89138193 15.39015063 256.84512231 20 275 C20.31120789 276.25946442 20.62241577 277.51892883 20.9430542 278.81655884 C23.30805694 287.78026091 27.63409633 295.87763543 32 304 C32.556875 305.05316406 33.11375 306.10632813 33.6875 307.19140625 C42.36821643 322.86260345 55.0632237 337.75446326 69 349 C70.01578125 349.83015625 71.0315625 350.6603125 72.078125 351.515625 C93.88019049 369.12847 119.55284376 384.94615711 146.484375 393.1875 C148.73379394 393.9140204 150.75450053 394.77990896 152.875 395.8125 C158.07795172 397.78962165 162.45776209 395.99411532 167.45703125 393.99609375 C168.47861328 393.58939453 169.50019531 393.18269531 170.55273438 392.76367188 C172.16631836 392.1072168 172.16631836 392.1072168 173.8125 391.4375 C174.92818359 390.98568359 176.04386719 390.53386719 177.19335938 390.06835938 C223.85419715 371.00061645 269.02421185 339.78092676 289.60693359 292.14160156 C292.70773654 284.62128444 294.87078645 276.83901469 297 269 C297.35449219 267.88753906 297.70898438 266.77507812 298.07421875 265.62890625 C300.55201618 255.91635851 300.13817515 245.85664038 300.11352539 235.90185547 C300.11324285 234.29448956 300.11340255 232.68712352 300.1139679 231.07975769 C300.11425327 226.74369982 300.10839864 222.40766995 300.10139394 218.07161856 C300.09511706 213.52993508 300.09455318 208.98825087 300.09336853 204.44656372 C300.09026795 195.85851853 300.08207181 187.27048616 300.07201904 178.6824466 C300.06081826 168.90005675 300.05533748 159.11766627 300.05032361 149.3352716 C300.03988807 129.22350726 300.0223134 109.11175444 300 89 C296.09866368 86.93070169 292.19055966 84.87450224 288.28125 82.8203125 C287.19360352 82.24321533 286.10595703 81.66611816 284.98535156 81.0715332 C272.19186537 74.36679877 258.83513853 69.18400515 245.11206055 64.71923828 C243.14921509 64.05081351 241.22235174 63.27917958 239.30078125 62.5 C233.45443014 60.28326455 227.30002318 59.22954893 221.1875 58 C219.99962891 57.7525 218.81175781 57.505 217.58789062 57.25 C214.41443857 56.60146057 211.23769684 55.98076038 208.0536499 55.38653564 C206.66632129 55.12541423 205.2802958 54.85728653 203.89556885 54.58270264 C189.59566178 51.77766974 175.53985198 51.52258499 161 51.625 C159.82779907 51.62965271 158.65559814 51.63430542 157.44787598 51.63909912 C131.36832862 51.76062502 107.23149243 54.12191739 82 61 Z " fill="#3E4143" transform="translate(0,0)"/>
<path d="M0 0 C18.00794914 2.57256416 37.75176297 15.47485346 48.8125 29.5625 C52.84435386 35.33741795 56.09582031 41.52449519 59.375 47.75 C60.16161011 49.24188843 60.16161011 49.24188843 60.96411133 50.76391602 C66.22336237 60.98132576 68.99410857 70.38907665 66.3125 81.96875 C62.48149309 93.33407051 56.01666786 102.07109134 45.3359375 107.65234375 C37.60330047 111.09406366 30.14176134 110.54615437 21.8125 110.3125 C13.9853125 110.1578125 13.9853125 110.1578125 6 110 C5.67 99.11 5.34 88.22 5 77 C-1.24657049 83.81444053 -7.24312104 90.38723089 -13.01171875 97.5390625 C-16.12596103 101.39362564 -19.35450524 105.14294163 -22.640625 108.8515625 C-27.27677709 114.09333806 -31.66591541 119.50640706 -36 125 C-32.38696902 130.145832 -28.49473362 134.63201406 -23.9921875 139.015625 C-21.51805378 141.48005624 -19.25671319 144.08830595 -16.98046875 146.734375 C-14.53394408 149.53316062 -12.01930009 152.26696176 -9.5 155 C-5.74824856 159.07221753 -2.04855587 163.1810538 1.5625 167.37890625 C2.9793823 168.97674906 4.48992433 170.48992433 6 172 C6.33 164.74 6.66 157.48 7 150 C10.14789063 149.92652344 10.14789063 149.92652344 13.359375 149.8515625 C15.43479403 149.79726034 17.51011526 149.74006914 19.58544922 149.68261719 C21.00692184 149.64477966 22.42847561 149.60985616 23.85009766 149.578125 C40.23830439 149.22113569 40.23830439 149.22113569 55.9375 144.875 C59.45400136 143.42172493 62.17442705 142.49746168 66 143 C71.23220223 147.07484874 74.64661849 153.59899285 76 160 C77.00973225 171.54437323 77.11122983 183.00783759 70.046875 192.671875 C62.7759843 201.26474583 55.03335596 206.64766931 44 209 C39.22098585 209.38693484 34.47171254 209.35081528 29.6796875 209.29296875 C28.32634964 209.28735977 26.9730056 209.28309584 25.61965942 209.28010559 C22.09161982 209.26875896 18.56396241 209.23938253 15.03607178 209.20599365 C11.42253886 209.17507038 7.80894115 209.16138767 4.1953125 209.14648438 C-2.87012702 209.11609974 -9.93452288 209.05735655 -17 209 C-17 195.14 -17 181.28 -17 167 C-19.64 169.31 -22.28 171.62 -25 174 C-25.99 174.33 -26.98 174.66 -28 175 C-28.67274793 176.33027533 -29.33788782 177.66439913 -30 179 C-31.69671206 180.9443251 -33.40859844 182.82241193 -35.1875 184.6875 C-39.12015441 188.89196741 -42.82190479 193.15716167 -46.296875 197.75390625 C-48.29876837 200.39401792 -50.3642148 202.97814275 -52.4375 205.5625 C-53.11683594 206.40941406 -53.79617187 207.25632812 -54.49609375 208.12890625 C-55.24052734 209.05509766 -55.24052734 209.05509766 -56 210 C-62.58749748 207.47407504 -65.14637216 199.99323312 -67.95263672 193.94775391 C-79.51392124 167.81152354 -78.18704992 140.19033007 -77.87890625 112.13671875 C-77.85453739 109.52114838 -77.83069753 106.90557304 -77.80735779 104.28999329 C-77.75188017 98.17076088 -77.69041413 92.05160485 -77.62663645 85.93245393 C-77.55416742 78.95028175 -77.48861804 71.96804952 -77.42356598 64.98580492 C-77.28991811 50.65712577 -77.14785318 36.32853928 -77 22 C-76.67 22 -76.34 22 -76 22 C-75.67 23.98 -75.34 25.96 -75 28 C-74.42894531 28.13792969 -73.85789062 28.27585937 -73.26953125 28.41796875 C-71.0495793 28.98728517 -68.87148789 29.61812374 -66.6875 30.3125 C-65.61048828 30.64701172 -65.61048828 30.64701172 -64.51171875 30.98828125 C-62 32 -62 32 -58.94346619 34.02911377 C-54.48938002 36.58420908 -50.43359833 36.5749607 -45.39282227 36.54589844 C-44.45545731 36.55623611 -43.51809235 36.56657379 -42.55232239 36.57722473 C-39.47350668 36.60657364 -36.39535064 36.60815025 -33.31640625 36.609375 C-31.17405449 36.62436195 -29.03171425 36.64109018 -26.88938904 36.65948486 C-21.26538553 36.70311245 -15.64153788 36.72314744 -10.01739502 36.73822021 C-4.27257082 36.75780773 1.47208547 36.79977597 7.21679688 36.83984375 C18.47781274 36.91509626 29.73879092 36.96541788 41 37 C40.05780512 35.73919947 39.11497079 34.47887678 38.171875 33.21875 C37.6469043 32.51685547 37.12193359 31.81496094 36.58105469 31.09179688 C27.04273249 18.47222544 14.23837966 9.71621682 0 3 C0 2.01 0 1.02 0 0 Z " fill="#2F2150" transform="translate(145,90)"/>
<path d="M0 0 C1.67148605 -0.01805191 1.67148605 -0.01805191 3.3767395 -0.03646851 C29.79447001 -0.28031552 57.88094877 3.05269757 82.74560547 12.453125 C85.10192187 13.33526685 87.46461897 14.13633513 89.859375 14.90625 C95.21434155 16.6738166 100.41410174 18.78697056 105.625 20.9375 C107.0171875 21.494375 107.0171875 21.494375 108.4375 22.0625 C115.61813475 25.02593656 122.44627761 28.50805079 129.31152344 32.13476562 C130.28161346 32.64517395 131.25170349 33.15558228 132.25119019 33.68145752 C134.62674796 34.9316741 137.00131651 36.1837296 139.375 37.4375 C139.39838747 58.51735096 139.41600789 79.59719977 139.42681217 100.67706108 C139.43196271 110.46537587 139.43898171 120.25368258 139.45043945 130.04199219 C139.46042428 138.57607597 139.46686247 147.1101539 139.46908849 155.64424336 C139.47038915 160.16059094 139.4734341 164.6769218 139.48073006 169.19326401 C139.48755024 173.44984483 139.48960481 177.70640213 139.48810768 181.9629879 C139.48838132 183.51974427 139.49035069 185.07650148 139.49420547 186.6332531 C139.5425699 207.18450742 139.5425699 207.18450742 136.9921875 216.1015625 C136.71584473 217.07037354 136.43950195 218.03918457 136.15478516 219.03735352 C135.85620605 220.03565186 135.55762695 221.0339502 135.25 222.0625 C134.78086182 223.64019165 134.78086182 223.64019165 134.30224609 225.24975586 C128.63748607 243.81000845 120.17494158 260.73118414 107.375 275.4375 C106.67761719 276.24445313 105.98023438 277.05140625 105.26171875 277.8828125 C103.00514971 280.4399902 100.70321734 282.94543103 98.375 285.4375 C97.57707031 286.30117188 96.77914062 287.16484375 95.95703125 288.0546875 C88.17301682 296.18020937 79.48062016 302.86438705 70.375 309.4375 C69.75641113 309.88480469 69.13782227 310.33210938 68.50048828 310.79296875 C51.06960887 323.24017734 31.9726372 332.58360617 12.06835938 340.359375 C10.26250638 341.08224001 8.47155664 341.84342349 6.69726562 342.640625 C-0.30773865 345.72811368 -4.66764392 345.55654085 -11.875 342.9765625 C-13.46267517 342.34942409 -15.04581155 341.71071205 -16.625 341.0625 C-17.48802734 340.7109082 -18.35105469 340.35931641 -19.24023438 339.99707031 C-46.98700876 328.50708536 -73.24570662 314.34732064 -95.2421875 293.6640625 C-97.35505118 291.68974726 -99.52318951 289.84257652 -101.75 288 C-106.69339778 283.69088748 -110.60283312 278.59111692 -114.625 273.4375 C-115.34558594 272.56738281 -116.06617187 271.69726562 -116.80859375 270.80078125 C-131.6332232 252.27660078 -139.61155889 230.54408158 -143.625 207.4375 C-143.79579795 206.54313421 -143.9665959 205.64876842 -144.14256954 204.72730064 C-144.65050689 201.26356285 -144.74793469 197.99020452 -144.74525452 194.48989868 C-144.74610894 193.81506955 -144.74696337 193.14024041 -144.74784368 192.44496191 C-144.749483 190.19716714 -144.74400261 187.94944798 -144.73852539 185.70166016 C-144.73824316 184.08503216 -144.73840196 182.46840404 -144.7389679 180.85177612 C-144.73925446 176.47209454 -144.73338041 172.09244042 -144.72639394 167.71276522 C-144.72013704 163.13235393 -144.71955475 158.551942 -144.71836853 153.9715271 C-144.71526211 145.30189206 -144.707058 136.63226965 -144.69701904 127.96264017 C-144.68583652 118.0908647 -144.68034206 108.21908862 -144.67532361 98.3473084 C-144.66487482 78.04403189 -144.6472887 57.74076674 -144.625 37.4375 C-140.67740756 35.36027069 -136.72577934 33.2908326 -132.7734375 31.22265625 C-131.66798584 30.64084595 -130.56253418 30.05903564 -129.42358398 29.45959473 C-120.0289759 24.55137015 -110.48837376 20.30063345 -100.625 16.4375 C-99.68785156 16.05464844 -98.75070313 15.67179687 -97.78515625 15.27734375 C-88.0349519 11.47276164 -77.74269096 9.05394192 -67.625 6.4375 C-66.44164063 6.12554687 -65.25828125 5.81359375 -64.0390625 5.4921875 C-60.58028746 4.66452093 -57.13337445 4.02339156 -53.625 3.4375 C-52.84543945 3.30214844 -52.06587891 3.16679688 -51.26269531 3.02734375 C-34.26002429 0.22408124 -17.18977049 0.09169278 0 0 Z M-40.625 19.4375 C-41.58422363 19.59347656 -42.54344727 19.74945313 -43.53173828 19.91015625 C-70.71718633 24.44736594 -97.15281089 31.89576578 -121.47973633 45.1015625 C-122.63508377 45.72756348 -123.79043121 46.35356445 -124.98078918 46.99853516 C-125.85337875 47.47339355 -126.72596832 47.94825195 -127.625 48.4375 C-127.76623968 67.23334827 -127.87148749 86.02908634 -127.93587303 104.82535839 C-127.96658591 113.55619923 -128.00832401 122.28670715 -128.07763672 131.01733398 C-128.13814136 138.64224408 -128.17631219 146.26691273 -128.18953097 153.89205629 C-128.19723706 157.91578637 -128.21485079 161.93882678 -128.25938034 165.96233177 C-128.59348642 197.41725358 -125.54393708 228.06923144 -106.625 254.4375 C-105.944375 255.41332031 -105.26375 256.38914062 -104.5625 257.39453125 C-94.10858064 271.71569442 -81.14347072 284.28336957 -66.625 294.4375 C-65.77204346 295.04102295 -65.77204346 295.04102295 -64.90185547 295.65673828 C-47.911459 307.61570393 -29.80552308 316.53284701 -10.625 324.4375 C-9.77583008 324.81221436 -8.92666016 325.18692871 -8.05175781 325.57299805 C-1.2902116 327.98171386 5.78446366 324.35153379 11.9375 321.625 C12.83718506 321.2319165 13.73687012 320.83883301 14.66381836 320.43383789 C29.79750538 313.7000832 45.02130969 306.3169017 58.375 296.4375 C59.15810547 295.86201416 59.15810547 295.86201416 59.95703125 295.27490234 C67.46126337 289.73240303 74.59452511 283.85295748 81.375 277.4375 C82.19613281 276.66921875 83.01726562 275.9009375 83.86328125 275.109375 C98.31753551 261.17214694 108.07966061 245.07872544 115.375 226.4375 C115.94541016 225.02984375 115.94541016 225.02984375 116.52734375 223.59375 C123.735758 204.226237 122.791385 183.25234482 122.67918181 162.92797375 C122.66016393 158.8895188 122.65864514 154.85105386 122.65510559 150.81256104 C122.64585765 143.19873073 122.62134442 135.58503284 122.59105712 127.97126031 C122.55728436 119.28899743 122.54097018 110.60672754 122.52597082 101.92441511 C122.49478652 84.09536891 122.44217055 66.26644518 122.375 48.4375 C118.40551834 46.51563869 114.43345615 44.59916868 110.4609375 42.68359375 C109.34710693 42.14424194 108.23327637 41.60489014 107.08569336 41.04919434 C62.46522293 19.55768335 8.46112459 11.24487965 -40.625 19.4375 Z " fill="#F0F0F0" transform="translate(160.625,51.5625)"/>
<path d="M0 0 C6.9009685 -0.07665296 13.80182545 -0.12885065 20.703125 -0.16479492 C23.04626569 -0.17979438 25.38937873 -0.20020059 27.73242188 -0.22631836 C31.11855942 -0.26309285 34.50432278 -0.27981537 37.890625 -0.29296875 C38.92237854 -0.30845261 39.95413208 -0.32393646 41.01715088 -0.33988953 C57.44766948 -0.34361208 73.22271274 5.75705071 86 16 C86.83144531 16.65613281 87.66289062 17.31226562 88.51953125 17.98828125 C103.27512215 30.38660417 112.61833659 48.94669273 115 68 C116.43047245 89.0417883 110.71239429 111.15047792 96.71118164 127.27197266 C91.10801412 133.39676177 85.00334754 138.50812149 78 143 C77.26265625 143.50015625 76.5253125 144.0003125 75.765625 144.515625 C71.89570546 146.59270046 67.8732632 147.8285535 63.6875 149.125 C62.87087891 149.38925781 62.05425781 149.65351563 61.21289062 149.92578125 C50.81014439 153.19166333 40.78419799 153.12734712 30 153.0625 C28.54297029 153.05747576 27.0859389 153.05291449 25.62890625 153.04882812 C22.08586177 153.03875121 18.54305313 153.01916315 15 153 C15 160.59 15 168.18 15 176 C10.31940147 171.9880584 6.08994809 168.15373723 2 163.625 C1.47728516 163.05265625 0.95457031 162.4803125 0.41601562 161.890625 C-2.80309103 158.35560602 -5.96759148 154.77714206 -9.08984375 151.15625 C-11.17247954 148.80529917 -13.31114082 146.51347777 -15.45605469 144.21948242 C-20.31593914 139.01763346 -24.88578787 133.82846719 -29 128 C-24.3577277 122.27347816 -19.68618464 116.59541936 -14.796875 111.078125 C-12.72324456 108.67992631 -10.73909026 106.21872904 -8.75 103.75 C-4.95737128 99.08214926 -0.98795582 94.6314022 3.10205078 90.2265625 C5.67672388 87.45284983 8.18963965 84.64673557 10.625 81.75 C11.40875 80.8425 12.1925 79.935 13 79 C13.33 79 13.66 79 14 79 C14 90.22 14 101.44 14 113 C19.15625 112.979375 24.3125 112.95875 29.625 112.9375 C31.22037598 112.949021 32.81575195 112.96054199 34.45947266 112.97241211 C45.58454904 112.77529537 54.74244497 110.51621246 63.35131836 102.92724609 C71.47691831 94.38446118 74.13921381 84.19543269 74.4609375 72.671875 C72.23507438 54.94042302 59.5896354 33.45448117 45.7890625 22.33984375 C32.33940155 12.0638275 16.76037116 4.00421747 0 1 C0 0.67 0 0.34 0 0 Z " fill="#319289" transform="translate(137,87)"/>
<path d="M0 0 C18.00794914 2.57256416 37.75176297 15.47485346 48.8125 29.5625 C52.84435386 35.33741795 56.09582031 41.52449519 59.375 47.75 C59.89940674 48.74459229 60.42381348 49.73918457 60.96411133 50.76391602 C66.22336237 60.98132576 68.99410857 70.38907665 66.3125 81.96875 C62.48149309 93.33407051 56.01666786 102.07109134 45.3359375 107.65234375 C37.60330047 111.09406366 30.14176134 110.54615437 21.8125 110.3125 C13.9853125 110.1578125 13.9853125 110.1578125 6 110 C5.67 99.11 5.34 88.22 5 77 C-1.24657049 83.81444053 -7.24312104 90.38723089 -13.01171875 97.5390625 C-17.8330564 103.50653347 -22.94200056 109.2334446 -28 115 C-29.3126815 116.49984117 -30.62518732 117.99983611 -31.9375 119.5 C-32.95833333 120.66666667 -33.97916667 121.83333333 -35 123 C-35.66 122.67 -36.32 122.34 -37 122 C-37.00364563 121.31841324 -37.00729126 120.63682648 -37.01104736 119.93458557 C-37.05300079 112.81225018 -37.12243683 105.69055148 -37.20751953 98.56860352 C-37.237848 95.91385189 -37.25691139 93.25970245 -37.27099609 90.60473633 C-37.29250897 86.77902996 -37.339206 82.95431359 -37.390625 79.12890625 C-37.39185364 77.95042618 -37.39308228 76.77194611 -37.39434814 75.55775452 C-37.523016 68.24639065 -38.08591254 60.80528081 -43.61871338 55.42628479 C-45 54 -45 54 -45.25 51.3125 C-46.23353538 46.96855208 -48.46505108 44.88940371 -51.50390625 41.734375 C-53 40 -53 40 -53 38 C-21.98 37.67 9.04 37.34 41 37 C29.58654273 21.78205697 17.30283313 11.16171374 0 3 C0 2.01 0 1.02 0 0 Z " fill="#2B2F32" transform="translate(145,90)"/>
<path d="M0 0 C8.72859282 3.47204026 13.23373426 14.86304479 16.75 22.91796875 C24.39597413 41.77007371 24.86535852 64.07299185 17.17041016 83.04541016 C8.19504276 103.9587459 -7.50641337 118.741325 -28.4375 127.375 C-29.94520929 127.95219104 -31.46767799 128.49174213 -33 129 C-33.96349365 129.33644531 -34.9269873 129.67289063 -35.91967773 130.01953125 C-41.08670304 131.4770893 -46.32922064 131.40246958 -51.6640625 131.4765625 C-52.77429779 131.49270599 -53.88453308 131.50884949 -55.02841187 131.52548218 C-57.36653496 131.55304464 -59.70473652 131.57454187 -62.04296875 131.59033203 C-64.43480997 131.61348099 -66.82654357 131.65455686 -69.21777344 131.71337891 C-72.67974742 131.79847824 -76.13867464 131.83101544 -79.6015625 131.8515625 C-80.66935944 131.88657867 -81.73715637 131.92159485 -82.83731079 131.95767212 C-90.06984434 131.91527247 -90.06984434 131.91527247 -92.77661133 129.2518158 C-94.07908105 127.20806755 -95.08854405 125.24229826 -96 123 C-96.36609375 122.15050781 -96.7321875 121.30101562 -97.109375 120.42578125 C-97.32078125 119.72839844 -97.5321875 119.03101563 -97.75 118.3125 C-97.97171875 117.60738281 -98.1934375 116.90226562 -98.421875 116.17578125 C-99.80131702 110.98423255 -100.15395025 106.11544586 -100.125 100.75 C-100.12886719 100.0178125 -100.13273438 99.285625 -100.13671875 98.53125 C-100.12671034 93.12671034 -100.12671034 93.12671034 -99 92 C-97.48797431 91.89303451 -95.97108312 91.8537892 -94.45532227 91.84228516 C-93.00229454 91.82689194 -93.00229454 91.82689194 -91.51991272 91.81118774 C-90.46275558 91.80388641 -89.40559845 91.79658508 -88.31640625 91.7890625 C-86.08658152 91.7609683 -83.85676392 91.7323037 -81.62695312 91.703125 C-78.10522861 91.66203536 -74.58363349 91.62515918 -71.06176758 91.59863281 C-67.6671977 91.57083401 -64.27323735 91.52493257 -60.87890625 91.4765625 C-59.32049767 91.4716832 -59.32049767 91.4716832 -57.73060608 91.46670532 C-44.65064751 91.2493765 -34.81269831 87.24130935 -25.6875 77.8125 C-19.15741984 69.92687425 -17.67075119 62.32380234 -17.5625 52.3125 C-17.5521875 51.51666504 -17.541875 50.72083008 -17.53125 49.90087891 C-17.64127422 42.54606544 -19.43698024 36.39668262 -24.125 30.625 C-26.95364238 27.09271523 -26.95364238 27.09271523 -28 25 C-27.32195312 24.59910156 -26.64390625 24.19820312 -25.9453125 23.78515625 C-15.46433284 17.38333904 -7.14453941 10.00708665 0 0 Z " fill="#E1984F" transform="translate(238,207)"/>
<path d="M0 0 C4.04430846 1.57226043 6.50569687 4.45175313 9.3125 7.625 C9.80105469 8.16769531 10.28960937 8.71039063 10.79296875 9.26953125 C13.9391296 12.77358871 17.04081811 16.31632859 20.125 19.875 C23.0126727 23.14769572 25.97857636 26.34842736 28.93554688 29.55834961 C32.20538078 33.11446405 35.41222043 36.71670625 38.5625 40.37890625 C39.9793823 41.97674906 41.48992433 43.48992433 43 45 C43.33 37.74 43.66 30.48 44 23 C47.14789063 22.92652344 47.14789063 22.92652344 50.359375 22.8515625 C52.43479403 22.79726034 54.51011526 22.74006914 56.58544922 22.68261719 C58.00692184 22.64477966 59.42847561 22.60985616 60.85009766 22.578125 C77.23830439 22.22113569 77.23830439 22.22113569 92.9375 17.875 C96.45400136 16.42172493 99.17442705 15.49746168 103 16 C108.23220223 20.07484874 111.64661849 26.59899285 113 33 C114.00973225 44.54437323 114.11122983 56.00783759 107.046875 65.671875 C99.7759843 74.26474583 92.03335596 79.64766931 81 82 C76.22098585 82.38693484 71.47171254 82.35081528 66.6796875 82.29296875 C65.32634964 82.28735977 63.9730056 82.28309584 62.61965942 82.28010559 C59.09161982 82.26875896 55.56396241 82.23938253 52.03607178 82.20599365 C48.42253886 82.17507038 44.80894115 82.16138767 41.1953125 82.14648438 C34.12987298 82.11609974 27.06547712 82.05735655 20 82 C20 68.14 20 54.28 20 40 C17.36 42.31 14.72 44.62 12 47 C10.515 47.495 10.515 47.495 9 48 C8.690625 48.639375 8.38125 49.27875 8.0625 49.9375 C6.75374293 52.47802844 5.54533936 52.85331176 3 54 C2.69255859 52.08574219 2.69255859 52.08574219 2.37890625 50.1328125 C2.10694185 48.46351379 1.83479709 46.79424447 1.5625 45.125 C1.42779297 44.28324219 1.29308594 43.44148438 1.15429688 42.57421875 C1.02216797 41.76855469 0.89003906 40.96289062 0.75390625 40.1328125 C0.63345947 39.38918457 0.5130127 38.64555664 0.38891602 37.87939453 C0.06752895 35.92115353 0.06752895 35.92115353 -1 34 C-1.09859764 31.53078023 -1.13986876 29.09041664 -1.1328125 26.62109375 C-1.13424759 25.53019188 -1.13424759 25.53019188 -1.13571167 24.41725159 C-1.13639235 22.87981072 -1.13454585 21.34236699 -1.13037109 19.80493164 C-1.12501351 17.443457 -1.13032377 15.08217189 -1.13671875 12.72070312 C-1.1360581 11.22916624 -1.13477721 9.73762948 -1.1328125 8.24609375 C-1.13483673 7.53569443 -1.13686096 6.8252951 -1.13894653 6.09336853 C-1.11495714 1.11495714 -1.11495714 1.11495714 0 0 Z " fill="#2E3235" transform="translate(108,217)"/>
<path d="M0 0 C8.59753552 -0.04647373 17.19501797 -0.08194528 25.79264832 -0.10362434 C29.78547626 -0.11403261 33.77821784 -0.12813737 37.77099609 -0.15087891 C41.62893515 -0.1727133 45.48679148 -0.18459084 49.3447876 -0.18975449 C50.81188254 -0.19343131 52.27897328 -0.20061095 53.74603271 -0.21146011 C61.08138219 -0.26351691 67.95839644 -0.29169305 75 2 C75.11682129 2.63067383 75.23364258 3.26134766 75.35400391 3.91113281 C75.82337852 6.24595366 75.82337852 6.24595366 78.3359375 7.421875 C79.33882813 7.86015625 80.34171875 8.2984375 81.375 8.75 C87.87060177 11.81265309 93.37471334 15.55898421 99 20 C99.70898438 20.55429688 100.41796875 21.10859375 101.1484375 21.6796875 C106.8577472 26.39607377 111.69080634 31.98508385 116 38 C116 38.66 116 39.32 116 40 C112.67207357 41.66396322 108.94444062 41.12278491 105.28686523 41.10107422 C104.38419418 41.09949814 103.48152313 41.09792206 102.55149841 41.09629822 C99.55380135 41.08878332 96.55624496 41.07276367 93.55859375 41.0546875 C92.53460039 41.04897861 91.51060703 41.04326973 90.45558357 41.03738785 C85.03111654 41.00581188 79.60675264 40.96685798 74.18237305 40.92285156 C68.58946827 40.87919261 62.99684395 40.86329608 57.40379238 40.85362053 C53.09605489 40.8407216 48.78868517 40.80598465 44.48112679 40.76550674 C42.42041603 40.75005539 40.35962488 40.74291969 38.29885674 40.74441147 C35.40482249 40.74459186 32.51264449 40.713531 29.61889648 40.67529297 C28.35369171 40.68587486 28.35369171 40.68587486 27.06292725 40.69667053 C21.41666552 40.57863529 17.69332312 39.15618043 12.89837742 36.17834663 C10.72080501 34.82670017 8.57558877 33.98607428 6.125 33.25 C5.04605469 32.91742188 5.04605469 32.91742188 3.9453125 32.578125 C2.98238281 32.29195312 2.98238281 32.29195312 2 32 C1.01 31.67 0.02 31.34 -1 31 C-2.16025772 25.44932709 -2.1836027 20.01829293 -2.1875 14.375 C-2.19974609 13.43398437 -2.21199219 12.49296875 -2.22460938 11.5234375 C-2.22750977 10.1621875 -2.22750977 10.1621875 -2.23046875 8.7734375 C-2.23457764 7.95278809 -2.23868652 7.13213867 -2.24291992 6.28662109 C-1.97629537 3.77686678 -1.17212711 2.2102989 0 0 Z " fill="#345378" transform="translate(70,87)"/>
<path d="M0 0 C0 13.86 0 27.72 0 42 C3.63 42 7.26 42 11 42 C10.96519531 43.09957031 10.93039063 44.19914062 10.89453125 45.33203125 C10.59159072 58.89976864 12.70067036 67.40134072 19 80 C40.78 80.495 40.78 80.495 63 81 C63 81.33 63 81.66 63 82 C42.21 82 21.42 82 0 82 C0 87.28 0 92.56 0 98 C-0.66 98 -1.32 98 -2 98 C-2 97.34 -2 96.68 -2 96 C-2.57234375 95.75636719 -3.1446875 95.51273437 -3.734375 95.26171875 C-6.40433538 93.77482702 -8.13829007 92.01916092 -10.25 89.8125 C-12.96738784 86.98106121 -15.75128566 84.32083981 -18.72265625 81.76171875 C-23.40676342 77.70051565 -27.80328513 73.38053992 -32.1875 69 C-33.35829102 67.84757812 -33.35829102 67.84757812 -34.55273438 66.671875 C-43.12580844 58.12061538 -43.12580844 58.12061538 -46 53 C-45.42731027 47.91942399 -40.5982912 43.60820615 -37.375 39.8125 C-36.09575959 38.28565421 -34.81710987 36.75831332 -33.5390625 35.23046875 C-32.92450195 34.49876465 -32.30994141 33.76706055 -31.67675781 33.01318359 C-29.65504392 30.58583171 -27.6968557 28.11264894 -25.75 25.625 C-19.9570673 18.33711692 -13.60087591 11.55730577 -7 5 C-6.113125 4.071875 -5.22625 3.14375 -4.3125 2.1875 C-2 0 -2 0 0 0 Z " fill="#8D535F" transform="translate(128,257)"/>
<path d="M0 0 C39.20192308 -0.51923077 39.20192308 -0.51923077 53 5 C48.06055546 12.11861125 41.22588825 16.42690366 33 19 C27.24808671 19.99783548 21.4311092 19.67441889 15.625 19.4375 C14.09903149 19.40227285 12.5729829 19.37035428 11.046875 19.34179688 C7.36089688 19.27183525 3.68640509 19.13486848 0 19 C0 12.73 0 6.46 0 0 Z " fill="#9C562C" transform="translate(151,181)"/>
<path d="M0 0 C2.67114694 1.01319367 3.99531145 1.99444283 5.85546875 4.19921875 C8.02943884 9.51913873 5.09896162 14.84226905 2.98193359 19.88574219 C-0.79100047 28.00946397 -5.70596937 35.91968187 -12.0625 42.25 C-16.33181118 46.69970461 -16.06877091 52.10535065 -16 58 C-16.33 58 -16.66 58 -17 58 C-17.03738281 57.01 -17.07476562 56.02 -17.11328125 55 C-17.5976805 44.46464988 -18.94050604 37.09916907 -25.6953125 28.6640625 C-27 27 -27 27 -28 25 C-27.32195312 24.59910156 -26.64390625 24.19820312 -25.9453125 23.78515625 C-15.46433284 17.38333904 -7.14453941 10.00708665 0 0 Z " fill="#D7893E" transform="translate(238,207)"/>
<path d="M0 0 C3.63 0 7.26 0 11 0 C10.96519531 1.09957031 10.93039063 2.19914062 10.89453125 3.33203125 C10.59159072 16.89976864 12.70067036 25.40134072 19 38 C40.78 38.495 40.78 38.495 63 39 C63 39.33 63 39.66 63 40 C42.21 40 21.42 40 0 40 C0 45.28 0 50.56 0 56 C-0.66 56 -1.32 56 -2 56 C-2 55.34 -2 54.68 -2 54 C-2.556875 53.79375 -3.11375 53.5875 -3.6875 53.375 C-6.92501302 51.44999226 -8.68231141 48.96149098 -11 46 C-7.63408134 47.44253657 -5.48952921 49.33264727 -3 52 C-2.19029157 48.40097715 -1.83292634 44.99351376 -1.71875 41.30859375 C-1.68193115 40.20749268 -1.6451123 39.1063916 -1.60717773 37.97192383 C-1.57180908 36.80556396 -1.53644043 35.6392041 -1.5 34.4375 C-1.41902471 32.01298534 -1.33698283 29.58850607 -1.25390625 27.1640625 C-1.21281738 25.96040039 -1.17172852 24.75673828 -1.12939453 23.51660156 C-0.8408106 15.67365259 -0.41998988 7.83683241 0 0 Z " fill="#A85639" transform="translate(128,299)"/>
<path d="M0 0 C18.30360584 2.61480083 38.26317376 15.76742169 49.1875 30.3125 C52.85391288 35.5838888 56.49881353 41.06622289 59 47 C58.505 47.99 58.505 47.99 58 49 C57.5153125 48.60167969 57.030625 48.20335937 56.53125 47.79296875 C50.08724742 42.69972825 44.19066023 40.02383253 36 39 C39 37 39 37 41 37 C39.0297406 34.31010685 37.02662515 31.64768769 35 29 C34.31550781 28.10474609 34.31550781 28.10474609 33.6171875 27.19140625 C24.92143932 16.4335235 12.37704599 8.83822924 0 3 C0 2.01 0 1.02 0 0 Z " fill="#1E4253" transform="translate(145,90)"/>
<path d="M0 0 C5.28359629 -0.04965427 10.56705496 -0.08583957 15.85083008 -0.10986328 C17.64610156 -0.1198846 19.44135688 -0.13350533 21.23657227 -0.15087891 C23.82572435 -0.17529809 26.41465951 -0.18652198 29.00390625 -0.1953125 C30.19651817 -0.21079636 30.19651817 -0.21079636 31.41322327 -0.22659302 C36.32462752 -0.2275689 40.3394647 0.43293229 45 2 C40.12940786 7.48085546 34.12947252 9.09620722 27 10 C18.0084704 10.46896109 8.99603304 10.25308035 0 10 C0 6.7 0 3.4 0 0 Z " fill="#C97E3B" transform="translate(152,182)"/>
<path d="M0 0 C3.16115776 1.36983503 3.9927092 1.9890638 6 5 C-2.03252512 16.34985367 -9.64912076 24.94814477 -21 33 C-23.64752004 30.42215154 -25.94432065 28.08351902 -28 25 C-27.32195312 24.59910156 -26.64390625 24.19820312 -25.9453125 23.78515625 C-15.46433284 17.38333904 -7.14453941 10.00708665 0 0 Z " fill="#B25D2B" transform="translate(238,207)"/>
<path d="M0 0 C0 0.66 0 1.32 0 2 C35.97 2.33 71.94 2.66 109 3 C109 3.33 109 3.66 109 4 C108.13693835 4.00358253 108.13693835 4.00358253 107.25644112 4.00723743 C93.26906124 4.06632262 79.28185674 4.14202091 65.29466438 4.23571491 C58.53060588 4.2807185 51.76660057 4.32012242 45.00244141 4.34643555 C38.47955715 4.3718257 31.95687826 4.41269941 25.43413925 4.46318626 C22.94059042 4.47992295 20.44700072 4.49139465 17.95340347 4.49761391 C14.47144852 4.50718117 10.99010657 4.53515179 7.50830078 4.56762695 C5.94816254 4.56547432 5.94816254 4.56547432 4.35650635 4.5632782 C3.41137177 4.57581635 2.46623718 4.58835449 1.49246216 4.60127258 C0.25633777 4.60818603 0.25633777 4.60818603 -1.00475883 4.61523914 C-1.66318842 4.74221023 -2.321618 4.86918131 -3 5 C-3.66 5.99 -4.32 6.98 -5 8 C-5 5.69 -5 3.38 -5 1 C-3 0 -3 0 0 0 Z " fill="#44605F" transform="translate(73,83)"/>
<path d="M0 0 C0.33 0 0.66 0 1 0 C1 10.23 1 20.46 1 31 C0.34 31 -0.32 31 -1 31 C-1 30.34 -1 29.68 -1 29 C-1.8353125 28.690625 -1.8353125 28.690625 -2.6875 28.375 C-5.92501302 26.44999226 -7.68231141 23.96149098 -10 21 C-6.63408134 22.44253657 -4.48952921 24.33264727 -2 27 C-1.23363909 23.53910321 -0.82850629 20.23922512 -0.68359375 16.69921875 C-0.64169922 15.72275391 -0.59980469 14.74628906 -0.55664062 13.74023438 C-0.51732422 12.73283203 -0.47800781 11.72542969 -0.4375 10.6875 C-0.39431641 9.66076172 -0.35113281 8.63402344 -0.30664062 7.57617188 C-0.20093175 5.05090431 -0.09883532 2.52554438 0 0 Z " fill="#BF855A" transform="translate(127,324)"/>
<path d="M0 0 C0 0.66 0 1.32 0 2 C5.94 2.33 11.88 2.66 18 3 C18 3.33 18 3.66 18 4 C17.37432129 4.01458252 16.74864258 4.02916504 16.10400391 4.04418945 C13.27703598 4.11852804 10.45126792 4.21523234 7.625 4.3125 C6.64015625 4.33505859 5.6553125 4.35761719 4.640625 4.38085938 C3.69960937 4.41630859 2.75859375 4.45175781 1.7890625 4.48828125 C0.91975098 4.51446533 0.05043945 4.54064941 -0.84521484 4.56762695 C-3.38600027 4.81345218 -3.38600027 4.81345218 -5 8 C-5 5.69 -5 3.38 -5 1 C-3 0 -3 0 0 0 Z " fill="#53606E" transform="translate(73,83)"/>
<path d="M0 0 C0.99 0.495 0.99 0.495 2 1 C2.22212255 3.74951693 2.42815588 6.49865612 2.625 9.25 C2.68945312 10.02730469 2.75390625 10.80460938 2.8203125 11.60546875 C3.30707097 18.72431144 3.30707097 18.72431144 1 22 C0.67 22 0.34 22 0 22 C0 14.74 0 7.48 0 0 Z " fill="#323D3E" transform="translate(251,153)"/>
<path d="M0 0 C1.258125 -0.020625 2.51625 -0.04125 3.8125 -0.0625 C4.52019531 -0.07410156 5.22789062 -0.08570312 5.95703125 -0.09765625 C8 0 8 0 11 1 C10.67 2.32 10.34 3.64 10 5 C5.05 3.02 5.05 3.02 0 1 C0 0.67 0 0.34 0 0 Z " fill="#2C616E" transform="translate(134,88)"/>
<path d="M0 0 C0 3 0 3 -1.6796875 4.7890625 C-2.40414062 5.39492188 -3.12859375 6.00078125 -3.875 6.625 C-4.59429687 7.23601562 -5.31359375 7.84703125 -6.0546875 8.4765625 C-8 10 -8 10 -10 11 C-8.64763423 8.06120516 -7.10057341 5.70767089 -5 3.25 C-4.484375 2.63640625 -3.96875 2.0228125 -3.4375 1.390625 C-2 0 -2 0 0 0 Z " fill="#523057" transform="translate(128,254)"/>
<path d="M0 0 C3.16115776 1.36983503 3.9927092 1.9890638 6 5 C5.01 5.66 4.02 6.32 3 7 C2.34 6.01 1.68 5.02 1 4 C0.01 3.67 -0.98 3.34 -2 3 C-1.34 2.01 -0.68 1.02 0 0 Z " fill="#BA6B30" transform="translate(238,207)"/>
<path d="M0 0 C3.96 0 7.92 0 12 0 C12.33 0.99 12.66 1.98 13 3 C8.62065881 2.48041715 4.31196609 1.94324258 0 1 C0 0.67 0 0.34 0 0 Z " fill="#36C2A3" transform="translate(137,87)"/>
<path d="M0 0 C1 1 2 2 3 3 C3.556875 3.45375 4.11375 3.9075 4.6875 4.375 C6.48870754 6.60506648 6.2257749 8.2154429 6 11 C3.02753198 8.45217026 1.58464712 5.54659117 0 2 C0 1.34 0 0.68 0 0 Z " fill="#454742" transform="translate(249,218)"/>
</svg>
